<?xml version="1.0" encoding="UTF-8" standalone="no"?>
<!-- Created with Inkscape (http://www.inkscape.org/) -->

<svg
   width="19.344807mm"
   height="26.502806mm"
   viewBox="0 0 19.344807 26.502806"
   version="1.1"
   id="SVGRoot"
   sodipodi:docname="logo.svg"
   inkscape:version="1.1.2 (08b2f3d93c, 2022-04-05)"
   xmlns:inkscape="http://www.inkscape.org/namespaces/inkscape"
   xmlns:sodipodi="http://sodipodi.sourceforge.net/DTD/sodipodi-0.dtd"
   xmlns="http://www.w3.org/2000/svg"
   xmlnsSvg="http://www.w3.org/2000/svg">
  <sodipodi:namedview
     id="namedview234"
     pagecolor="#ffffff"
     bordercolor="#666666"
     borderopacity="1.0"
     inkscape:pageshadow="2"
     inkscape:pageopacity="0.0"
     inkscape:pagecheckerboard="0"
     inkscape:document-units="mm"
     showgrid="false"
     inkscape:zoom="4.9730289"
     inkscape:cx="34.284941"
     inkscape:cy="59.822697"
     inkscape:window-width="1366"
     inkscape:window-height="704"
     inkscape:window-x="0"
     inkscape:window-y="27"
     inkscape:window-maximized="1"
     inkscape:current-layer="g569" />
  <defs
     id="defs229" />
  <g
     inkscape:label="Layer 1"
     inkscape:groupmode="layer"
     id="layer1"
     transform="translate(-23.158251,-11.846029)">
    <g
       id="g569"
       style="fill:#808000;stroke:none;stroke-width:1"
       transform="matrix(-0.00353919,-0.19395726,0.19815669,-0.00361854,-32.900759,34.082404)">
      <path
         d="m 76.404688,287.01212 c 4.2,0 7.7,3.4 7.7,7.70001 0,4.20001 -3.4,7.70001 -7.7,7.70001 -4.2,0 -7.7,-3.4 -7.7,-7.70001 0,-4.30001 3.4,-7.70001 7.7,-7.70001"
         id="path36939"
         style="fill:#000000" />
      <path
         d="m 77.566064,363.17591 c 4.2,0 7.7,3.4 7.7,7.70001 0,4.20001 -3.4,7.70001 -7.7,7.70001 -4.2,0 -7.7,-3.4 -7.7,-7.70001 0,-4.30001 3.4,-7.70001 7.7,-7.70001"
         id="path36959"
         style="fill:#000000" />
      <path
         d="m -2.0969669,364.12131 c 4.1999998,0 7.6999988,3.4 7.6999988,7.70001 0,4.20001 -3.399999,7.70001 -7.6999988,7.70001 -4.1999989,0 -7.6999984,-3.4 -7.6999984,-7.70001 0,-4.30001 3.3999995,-7.70001 7.6999984,-7.70001"
         id="path36961"
         style="fill:#000000" />
      <path
         d="m -0.6526448,286.70407 c 4.1999995,0 7.6999985,3.4 7.6999985,7.70001 0,4.20001 -3.399999,7.70001 -7.6999985,7.70001 -4.1999992,0 -7.6999987,-3.4 -7.6999987,-7.70001 0,-4.30001 3.3999995,-7.70001 7.6999987,-7.70001"
         id="path36963"
         style="fill:#000000" />
    </g>
    <g
       id="g18572"
       style="fill:#808000;stroke:none;stroke-width:1"
       transform="matrix(0.13457004,-0.13972419,0.14275133,0.13748173,20.492184,24.653912)" />
    <g
       id="g19777"
       style="fill:#000000;stroke:none;stroke-width:1"
       transform="matrix(-0.00353919,-0.19395726,0.19815669,-0.00361854,23.313018,35.194663)">
      <path
         d="m 31.7,20.9 c 5.2,-3.4 10.9,-5 17.2,-5.1 6.2,0 11.9,1.7 17.2,5.1 l 11,-11 C 68.5,3.4 59.2,0.1 48.9,0.1 38.6,0.1 29.2,3.4 20.8,9.9 Z"
         id="path19761"
         style="fill:#000000" />
      <path
         d="M 20.7,66 C 17.2,60.7 15.5,55 15.5,48.9 15.5,42.7 17.2,37 20.7,31.8 L 9.8,20.9 C 3.4,29.3 0.2,38.6 0.2,49 c 0,10.2 3.2,19.6 9.7,28.1 z"
         id="path19763"
         style="fill:#000000" />
      <path
         d="M 66.1,76.9 C 60.9,80.4 55.2,82.2 49,82.3 42.7,82.3 36.9,80.6 31.7,77 l -11,10.9 c 8.5,6.6 17.9,9.9 28.3,9.8 10.3,-0.1 19.6,-3.4 28,-9.8 z"
         id="path19765"
         style="fill:#000000" />
      <path
         d="m 76.8,31.7 c 3.5,5.3 5.3,11.1 5.2,17.4 -0.1,6.1 -1.8,11.7 -5.2,16.8 l 11,10.9 C 94.3,68.4 97.6,59.1 97.6,48.9 97.7,38.5 94.4,29.1 87.8,20.6 Z"
         id="path19767"
         style="fill:#000000" />
      <rect
         style="fill:#000000;stroke-width:0.82"
         id="rect21179"
         width="4.8394084"
         height="47.659344"
         x="37.329342"
         y="-120.3594"
         transform="matrix(-0.01865313,0.99982602,-0.99984054,-0.0178577,0,0)" />
      <text
         xml:space="preserve"
         style="font-style:normal;font-variant:normal;font-weight:bold;font-stretch:normal;font-size:57.477px;line-height:1.25;font-family:Uroob;-inkscape-font-specification:'Uroob Bold';fill:#000000;fill-opacity:1;stroke:none;stroke-width:1.34713"
         x="34.603527"
         y="-31.55197"
         id="text23778"
         transform="matrix(-0.01842365,0.98752598,-1.0122943,-0.01808014,0,0)"><tspan
           sodipodi:role="line"
           id="tspan23776"
           style="font-style:normal;font-variant:normal;font-weight:bold;font-stretch:normal;font-size:57.477px;font-family:Uroob;-inkscape-font-specification:'Uroob Bold';fill:#000000;stroke-width:1.34713"
           x="34.603527"
           y="-31.55197">N</tspan></text>
      <rect
         style="fill:#000000;stroke-width:0.783892"
         id="rect73901"
         width="4.8394084"
         height="43.554371"
         x="36.571365"
         y="-27.294994"
         transform="matrix(-0.01865313,0.99982602,-0.99984054,-0.0178577,0,0)" />
      <rect
         style="fill:#000000;stroke-width:0.797366"
         id="rect79637"
         width="4.8394084"
         height="45.064548"
         x="53.297615"
         y="-27.958412"
         transform="matrix(-0.01865313,0.99982602,-0.99984054,-0.0178577,0,0)" />
      <text
         xml:space="preserve"
         style="font-size:50.3766px;line-height:1.25;font-family:sans-serif;stroke-width:1.34938"
         x="140.63937"
         y="-53.996109"
         id="text14083"
         transform="matrix(-0.01845455,0.98918219,-1.0105994,-0.01804987,0,0)"><tspan
           sodipodi:role="line"
           id="tspan14081"
           style="stroke-width:1.34938"
           x="140.63937"
           y="-53.996109" /></text>
      <rect
         style="fill:#000000;stroke-width:0.82"
         id="rect41884"
         width="4.8394084"
         height="47.659344"
         x="53.349468"
         y="-120.3594"
         transform="matrix(-0.01865313,0.99982602,-0.99984054,-0.0178577,0,0)" />
    </g>
  </g>
</svg>
