<?xml version="1.0" encoding="UTF-8" standalone="no"?>
<!-- Created with Inkscape (http://www.inkscape.org/) -->

<svg
   width="52mm"
   height="74mm"
   viewBox="0 0 52 74"
   version="1.1"
   id="SVGRoot"
   xmlns="http://www.w3.org/2000/svg"
   xmlnssvg="http://www.w3.org/2000/svg">
  <defs
     id="defs229" />
  <g
     id="layer1"
     transform="translate(-23.158251,-11.846029)">
    <g
       id="g569"
       style="fill:#808000;stroke:none;stroke-width:1"
       transform="matrix(-0.00902536,-0.5544612,0.50532354,-0.01034424,-120.64182,67.316043)">
      <path
         d="m 72.802645,285.27173 c 4.2,0 7.7,3.4 7.7,7.70001 0,4.20001 -3.4,7.70001 -7.7,7.70001 -4.2,0 -7.7,-3.4 -7.7,-7.70001 0,-4.30001 3.4,-7.70001 7.7,-7.70001"
         id="path36939"
         style="fill:#000000" />
      <path
         d="m 72.204761,369.92144 c 4.2,0 7.7,3.4 7.7,7.70001 0,4.20001 -3.4,7.70001 -7.7,7.70001 -4.2,0 -7.7,-3.4 -7.7,-7.70001 0,-4.30001 3.4,-7.70001 7.7,-7.70001"
         id="path36959"
         style="fill:#000000" />
      <path
         d="m -6.241591,370.21118 c 4.1999998,0 7.6999988,3.4 7.6999988,7.70001 0,4.20001 -3.399999,7.70001 -7.6999988,7.70001 -4.199999,0 -7.699998,-3.4 -7.699998,-7.70001 0,-4.30001 3.399999,-7.70001 7.699998,-7.70001"
         id="path36961"
         style="fill:#000000" />
      <path
         d="m -3.8154725,285.08723 c 4.19999952,0 7.6999985,3.4 7.6999985,7.70001 0,4.20001 -3.39999898,7.70001 -7.6999985,7.70001 -4.1999992,0 -7.6999985,-3.4 -7.6999985,-7.70001 0,-4.30001 3.3999993,-7.70001 7.6999985,-7.70001"
         id="path36963"
         style="fill:#000000" />
    </g>
    <g
       id="g18572"
       style="fill:#808000;stroke:none;stroke-width:1"
       transform="matrix(0.13457004,-0.13972419,0.14275133,0.13748173,20.492184,24.653912)" />
    <g
       id="g19777"
       style="fill:#000000;stroke:none;stroke-width:1"
       transform="matrix(-0.00353919,-0.19395726,0.19815669,-0.00361854,23.313018,35.194663)">
      <path
         d="m -100.0859,52.58251 c 13.304722,-8.885616 27.886593,-13.070222 44.001716,-13.337494 15.859228,-0.006 30.437774,4.428819 43.99143,13.304304 L 16.055673,23.807356 C -5.9360616,6.8380365 -29.721578,-1.7723963 -56.068362,-1.7624587 -82.415144,-1.752521 -106.46311,6.8759535 -127.95636,23.861675 Z"
         id="path19761"
         style="fill:#000000;stroke-width:2.5848" />
      <path
         d="m -128.26869,170.39166 c -8.94744,-13.8399 -13.2902,-28.72633 -13.28405,-44.65917 0.006,-16.19404 4.36049,-31.08374 13.31852,-44.66921 l -27.87056,-28.459641 c -16.37928,21.946479 -24.57406,46.240619 -24.58454,73.404801 -0.0103,26.6418 8.16565,51.19097 24.7837,73.38619 z"
         id="path19763"
         style="fill:#000000;stroke-width:2.5848" />
      <path
         d="m -12.149191,198.81802 c -13.304816,9.14681 -27.886888,13.8538 -43.746218,14.12098 -16.115022,0.006 -30.949361,-4.42863 -44.247021,-13.8266 l -28.14833,28.48077 c 21.73585,17.23061 45.777153,25.84095 72.379831,25.56972 26.346884,-0.27113 50.1390531,-8.89951 71.632199,-25.62404 z"
         id="path19765"
         style="fill:#000000;stroke-width:2.5848" />
      <path
         d="m 15.266321,80.74796 c 8.947449,13.839911 13.545896,28.98743 13.283753,45.44276 -0.261943,15.93294 -4.616084,30.56144 -13.31822,43.88563 L 43.35821,198.53588 C 59.993286,176.58931 68.44386,152.29508 68.454141,125.65328 68.720415,98.488995 60.288686,73.939932 43.414848,51.744802 Z"
         id="path19767"
         style="fill:#000000;stroke-width:2.5848" />
      <rect
         style="fill:#000000;stroke-width:2.0119"
         id="rect21179"
         width="12.640337"
         height="109.84229"
         x="98.761505"
         y="-114.64646"
         transform="matrix(-0.01865313,0.99982602,-0.99984054,-0.0178577,0,0)" />
      <text
         xml:space="preserve"
         style="font-style:normal;font-variant:normal;font-weight:bold;font-stretch:normal;font-size:148.567px;line-height:1.25;font-family:Uroob;-inkscape-font-specification:'Uroob Bold';fill:#000000;fill-opacity:1;stroke:none;stroke-width:3.48206"
         x="90.704399"
         y="99.252823"
         id="text23778"
         transform="matrix(-0.01861724,0.99790236,-1.0017683,-0.01789213,0,0)"><tspan
           id="tspan23776"
           style="font-style:normal;font-variant:normal;font-weight:normal;font-stretch:normal;font-size:148.567px;font-family:Uroob;-inkscape-font-specification:Uroob;fill:#000000;stroke-width:3.48206"
           x="90.704399"
           y="99.252823">N</tspan></text>
      <rect
         style="fill:#000000;stroke-width:2.0262"
         id="rect73901"
         width="12.640337"
         height="111.40869"
         x="96.7817"
         y="111.33847"
         transform="matrix(-0.01865313,0.99982602,-0.99984054,-0.0178577,0,0)" />
      <rect
         style="fill:#000000;stroke-width:2.06103"
         id="rect79637"
         width="12.640337"
         height="115.2716"
         x="140.46999"
         y="109.6415"
         transform="matrix(-0.01865313,0.99982602,-0.99984054,-0.0178577,0,0)" />
      <text
         xml:space="preserve"
         style="font-size:130.213px;line-height:1.25;font-family:sans-serif;stroke-width:3.48788"
         x="364.78369"
         y="41.542465"
         id="text14083"
         transform="matrix(-0.01864846,0.99957597,-1.000091,-0.01786218,0,0)"><tspan
           id="tspan14081"
           style="stroke-width:3.48788"
           x="364.78369"
           y="41.542465" /></text>
      <rect
         style="fill:#000000;stroke-width:2.13597"
         id="rect41884"
         width="14.047189"
         height="111.40748"
         x="139.19856"
         y="-116.28113"
         transform="matrix(-0.01865313,0.99982602,-0.99984054,-0.0178577,0,0)" />
    </g>
  </g>
</svg>
