<?xml version="1.0" encoding="UTF-8" standalone="no"?>
<!-- Created with Inkscape (http://www.inkscape.org/) -->

<svg
   width="38.450195mm"
   height="26.969988mm"
   viewBox="0 0 38.450195 26.969988"
   version="1.1"
   id="SVGRoot"
   xmlns="http://www.w3.org/2000/svg"
   xmlnssvg="http://www.w3.org/2000/svg">
  <defs
     id="defs229" />
  <g
     id="layer1"
     transform="translate(-7.2832424,-11.844463)">
    <g
       id="g18572"
       style="fill:#808000;stroke:none;stroke-width:1"
       transform="matrix(0.13457004,-0.13972419,0.14275133,0.13748173,20.492184,24.653912)" />
    <g
       id="g19777"
       style="fill:#000000;stroke:none;stroke-width:1"
       transform="matrix(-0.00353919,-0.19395726,0.19815669,-0.00361854,7.4380095,35.194663)">
      <path
         d="m 31.7,20.9 c 5.2,-3.4 10.9,-5 17.2,-5.1 6.2,0 11.9,1.7 17.2,5.1 l 11,-11 C 68.5,3.4 59.2,0.1 48.9,0.1 38.6,0.1 29.2,3.4 20.8,9.9 Z"
         id="path19761"
         style="fill:#000000" />
      <path
         d="M 20.7,66 C 17.2,60.7 15.5,55 15.5,48.9 15.5,42.7 17.2,37 20.7,31.8 L 9.8,20.9 C 3.4,29.3 0.2,38.6 0.2,49 c 0,10.2 3.2,19.6 9.7,28.1 z"
         id="path19763"
         style="fill:#000000" />
      <path
         d="M 66.1,76.9 C 60.9,80.4 55.2,82.2 49,82.3 42.7,82.3 36.9,80.6 31.7,77 l -11,10.9 c 8.5,6.6 17.9,9.9 28.3,9.8 10.3,-0.1 19.6,-3.4 28,-9.8 z"
         id="path19765"
         style="fill:#ccff00" />
      <path
         d="m 76.8,31.7 c 3.5,5.3 5.3,11.1 5.2,17.4 -0.1,6.1 -1.8,11.7 -5.2,16.8 l 11,10.9 C 94.3,68.4 97.6,59.1 97.6,48.9 97.7,38.5 94.4,29.1 87.8,20.6 Z"
         id="path19767"
         style="fill:#000000" />
      <rect
         style="fill:#000000;stroke-width:0.793875"
         id="rect21179"
         width="4.8394084"
         height="44.670929"
         x="36.865665"
         y="-117.14336"
         transform="matrix(-0.01865313,0.99982602,-0.99984054,-0.0178577,0,0)" />
      <rect
         style="fill:#000000;stroke-width:0.792083"
         id="rect21261"
         width="4.8394084"
         height="44.469482"
         x="53.022251"
         y="-117.05954"
         transform="matrix(-0.01865313,0.99982602,-0.99984054,-0.0178577,0,0)" />
      <text
         xml:space="preserve"
         style="font-style:normal;font-variant:normal;font-weight:bold;font-stretch:normal;font-size:57.5733px;line-height:1.25;font-family:Uroob;-inkscape-font-specification:'Uroob Bold';fill:#000000;fill-opacity:1;stroke:none;stroke-width:1.34938"
         x="34.536465"
         y="-31.604885"
         id="text23778"
         transform="matrix(-0.01845455,0.98918217,-1.0105994,-0.01804987,0,0)"><tspan
           id="tspan23776"
           style="font-style:normal;font-variant:normal;font-weight:normal;font-stretch:normal;font-size:57.5733px;font-family:Uroob;-inkscape-font-specification:Uroob;fill:#000000;stroke-width:1.34938"
           x="34.536465"
           y="-31.604885">N</tspan></text>
      <rect
         style="fill:#000000;stroke-width:0.783892"
         id="rect73901"
         width="4.8394084"
         height="43.554371"
         x="36.779846"
         y="-26.909519"
         transform="matrix(-0.01865313,0.99982602,-0.99984054,-0.0178577,0,0)" />
      <rect
         style="fill:#000000;stroke-width:0.783892"
         id="rect79637"
         width="4.8394084"
         height="43.554371"
         x="53.937523"
         y="-27.236353"
         transform="matrix(-0.01865313,0.99982602,-0.99984054,-0.0178577,0,0)" />
      <text
         xml:space="preserve"
         style="font-size:50.3766px;line-height:1.25;font-family:sans-serif;stroke-width:1.34938"
         x="140.63937"
         y="-53.996109"
         id="text14083"
         transform="matrix(-0.01845455,0.98918219,-1.0105994,-0.01804987,0,0)"><tspan
           id="tspan14081"
           style="stroke-width:1.34938"
           x="140.63937"
           y="-53.996109" /></text>
      <text
         xml:space="preserve"
         style="font-style:normal;font-variant:normal;font-weight:bold;font-stretch:normal;font-size:50.3767px;line-height:1.25;font-family:Uroob;-inkscape-font-specification:'Uroob Bold';stroke-width:1.34938"
         x="62.32996"
         y="-31.067402"
         id="text20945"
         transform="matrix(-0.01845455,0.98918217,-1.0105994,-0.01804987,0,0)"><tspan
           id="tspan20943"
           style="font-style:normal;font-variant:normal;font-weight:normal;font-stretch:normal;font-size:50.3767px;font-family:Uroob;-inkscape-font-specification:Uroob;stroke-width:1.34938"
           x="62.32996"
           y="-31.067402">FTickets</tspan></text>
    </g>
  </g>
</svg>
